<svg version="1.1" baseProfile="basic" id="Recto" xmlns="http://www.w3.org/2000/svg" xmlns:xlink="http://www.w3.org/1999/xlink"
	 x="0px" y="0px" width="453.543px" height="623.622px" viewBox="0 0 453.543 623.622" xml:space="preserve">
<path id="g1" d="M239.021,249.645h-24.5v-1h24.5V249.645z M239.021,225.645h-24.5v-1h24.5V225.645z"/>
<text id="t11" transform="matrix(1 0 0 1 149.7282 538.79)" font-family="'Oswald'" font-weight="300"  font-size="10">10, route de Galice - 13090 AIX EN PROVENCE</text>
<text id="t10" transform="matrix(1 0 0 1 180.444 526.4917)" font-family="'Oswald'" font-weight="300"  font-size="10">Flora Nom et Jean-Paul Nom</text>
<text id="t9" transform="matrix(1 0 0 1 297.1159 434.7866)" font-family="'Oswald'" font-weight="300"  font-size="10">À L’ISSU DE LA CÉRÉMONIE</text>
<text id="t8" transform="matrix(1 0 0 1 297.4767 419.6538)" font-family="'Oswald'" font-weight="300"  font-size="10">UN COCKTAIL SERA SERVI</text>
<text id="t7" transform="matrix(1 0 0 1 177.8317 429.5244)" fill="#EA6984" font-family="'Open Sans'" font-weight="700" font-size="19">22.07.2014</text>
<text id="t6" transform="matrix(1 0 0 1 93.7927 435.8149)" font-family="'Oswald'" font-weight="300"  font-size="10">AIX EN PROVENCE</text>
<text id="t5" transform="matrix(1 0 0 1 73.7331 420.6826)" font-family="'Oswald'" font-weight="300"  font-size="10">14h ÉGLISE ST SAUVEUR</text>
<text id="t4" transform="matrix(1 0 0 1 135.0065 333.0758)" font-family="'Oswald'" font-weight="300"  font-size="13">ont le plaisir de vous convier à leur mariage</text>
<text id="t3" transform="matrix(1 0 0 1 154.1335 285.5005)" font-family="'Great Vibes'" font-size="36">Jean-Paul</text>
<text id="t2" transform="matrix(1 0 0 1 219.7746 242.2114)"  font-family="'Open Sans'" font-weight="800"  font-size="10">E T</text>
<text id="t1" transform="matrix(1 0 0 1 187.2189 212.2661)" font-family="'Great Vibes'" font-size="36">Flora</text>
</svg>
